<mxfile host="www.draw.io" modified="2019-10-23T17:51:04.606Z" agent="Mozilla/5.0 (Macintosh; Intel Mac OS X 10_14_6) AppleWebKit/605.1.15 (KHTML, like Gecko) Version/13.0.2 Safari/605.1.15" etag="qaKGQimpy9zsljLFcD0-" version="12.1.4" type="github" pages="1">
  <diagram id="WP0_x2ScLb-KjzCaMxeH" name="Page-1">
    <mxGraphModel dx="1426" dy="962" grid="1" gridSize="10" guides="1" tooltips="1" connect="1" arrows="1" fold="1" page="1" pageScale="1" pageWidth="1169" pageHeight="827" math="0" shadow="0">
      <root>
        <mxCell id="0"/>
        <mxCell id="1" parent="0"/>
        <mxCell id="FEcCHL-Ps7Zam9JdG29B-9" value="" style="rounded=1;whiteSpace=wrap;html=1;fillColor=#dae8fc;strokeColor=#6c8ebf;" vertex="1" parent="1">
          <mxGeometry x="130" y="380" width="340" height="100" as="geometry"/>
        </mxCell>
        <mxCell id="FEcCHL-Ps7Zam9JdG29B-4" style="edgeStyle=orthogonalEdgeStyle;rounded=0;orthogonalLoop=1;jettySize=auto;html=1;entryX=0;entryY=0.5;entryDx=0;entryDy=0;startArrow=classic;startFill=1;" edge="1" parent="1" source="FEcCHL-Ps7Zam9JdG29B-1" target="FEcCHL-Ps7Zam9JdG29B-3">
          <mxGeometry relative="1" as="geometry"/>
        </mxCell>
        <mxCell id="FEcCHL-Ps7Zam9JdG29B-1" value="Internet" style="ellipse;shape=cloud;whiteSpace=wrap;html=1;fillColor=#f5f5f5;strokeColor=#666666;fontColor=#333333;" vertex="1" parent="1">
          <mxGeometry x="400" y="70" width="120" height="80" as="geometry"/>
        </mxCell>
        <mxCell id="FEcCHL-Ps7Zam9JdG29B-5" style="edgeStyle=orthogonalEdgeStyle;rounded=0;orthogonalLoop=1;jettySize=auto;html=1;entryX=1;entryY=0.5;entryDx=0;entryDy=0;startArrow=classic;startFill=1;" edge="1" parent="1" source="FEcCHL-Ps7Zam9JdG29B-2" target="FEcCHL-Ps7Zam9JdG29B-3">
          <mxGeometry relative="1" as="geometry"/>
        </mxCell>
        <mxCell id="FEcCHL-Ps7Zam9JdG29B-2" value="Intranet" style="ellipse;shape=cloud;whiteSpace=wrap;html=1;fillColor=#f5f5f5;strokeColor=#666666;fontColor=#333333;" vertex="1" parent="1">
          <mxGeometry x="640" y="70" width="120" height="80" as="geometry"/>
        </mxCell>
        <mxCell id="FEcCHL-Ps7Zam9JdG29B-13" style="edgeStyle=orthogonalEdgeStyle;rounded=0;orthogonalLoop=1;jettySize=auto;html=1;exitX=0;exitY=0.75;exitDx=0;exitDy=0;startArrow=classic;startFill=1;" edge="1" parent="1" source="FEcCHL-Ps7Zam9JdG29B-3" target="FEcCHL-Ps7Zam9JdG29B-7">
          <mxGeometry relative="1" as="geometry"/>
        </mxCell>
        <mxCell id="FEcCHL-Ps7Zam9JdG29B-14" style="edgeStyle=orthogonalEdgeStyle;rounded=0;orthogonalLoop=1;jettySize=auto;html=1;exitX=0;exitY=0.75;exitDx=0;exitDy=0;entryX=0.5;entryY=0;entryDx=0;entryDy=0;startArrow=classic;startFill=1;" edge="1" parent="1" source="FEcCHL-Ps7Zam9JdG29B-3" target="FEcCHL-Ps7Zam9JdG29B-6">
          <mxGeometry relative="1" as="geometry"/>
        </mxCell>
        <mxCell id="FEcCHL-Ps7Zam9JdG29B-15" style="edgeStyle=orthogonalEdgeStyle;rounded=0;orthogonalLoop=1;jettySize=auto;html=1;exitX=0.5;exitY=1;exitDx=0;exitDy=0;entryX=0.5;entryY=0;entryDx=0;entryDy=0;startArrow=classic;startFill=1;" edge="1" parent="1" source="FEcCHL-Ps7Zam9JdG29B-3" target="FEcCHL-Ps7Zam9JdG29B-8">
          <mxGeometry relative="1" as="geometry"/>
        </mxCell>
        <mxCell id="FEcCHL-Ps7Zam9JdG29B-3" value="API manager/Proxy" style="rounded=1;whiteSpace=wrap;html=1;fillColor=#fff2cc;strokeColor=#d6b656;" vertex="1" parent="1">
          <mxGeometry x="520" y="200" width="120" height="60" as="geometry"/>
        </mxCell>
        <mxCell id="FEcCHL-Ps7Zam9JdG29B-6" value="hejtado-quido" style="rounded=1;whiteSpace=wrap;html=1;" vertex="1" parent="1">
          <mxGeometry x="160" y="400" width="120" height="60" as="geometry"/>
        </mxCell>
        <mxCell id="FEcCHL-Ps7Zam9JdG29B-7" value="hejtado-thermometers" style="rounded=1;whiteSpace=wrap;html=1;" vertex="1" parent="1">
          <mxGeometry x="320" y="400" width="120" height="60" as="geometry"/>
        </mxCell>
        <mxCell id="FEcCHL-Ps7Zam9JdG29B-8" value="hejtado-brain" style="rounded=1;whiteSpace=wrap;html=1;fillColor=#d5e8d4;strokeColor=#82b366;" vertex="1" parent="1">
          <mxGeometry x="520" y="290" width="120" height="60" as="geometry"/>
        </mxCell>
        <mxCell id="FEcCHL-Ps7Zam9JdG29B-12" value="Hejtado Hardware API" style="text;html=1;strokeColor=none;fillColor=none;align=center;verticalAlign=middle;whiteSpace=wrap;rounded=0;" vertex="1" parent="1">
          <mxGeometry x="130" y="490" width="130" height="20" as="geometry"/>
        </mxCell>
      </root>
    </mxGraphModel>
  </diagram>
</mxfile>
